<svg xmlns="http://www.w3.org/2000/svg">
<symbol id="icon-linkedin" viewBox="0 0 32 32">
<path d="M17.712 14.134h0.022v-0.035l-0.022 0.035zM17.712 14.134h0.022v-0.035l-0.022 0.035zM17.712 14.134h0.022v-0.035l-0.022 0.035zM17.712 14.134h0.022v-0.035l-0.022 0.035zM17.712 14.134h0.022v-0.035l-0.022 0.035zM17.712 14.134h0.022v-0.035l-0.022 0.035zM17.712 14.134h0.022v-0.035l-0.022 0.035zM17.712 14.134h0.022v-0.035l-0.022 0.035zM17.712 14.134h0.022v-0.035l-0.022 0.035zM17.712 14.134h0.022v-0.035l-0.022 0.035zM17.712 14.134h0.022v-0.035l-0.022 0.035zM17.712 14.134h0.022v-0.035l-0.022 0.035zM17.712 14.134h0.022v-0.035l-0.022 0.035zM17.712 14.134h0.022v-0.035l-0.022 0.035zM17.712 14.134h0.022v-0.035l-0.022 0.035zM17.712 14.134h0.022v-0.035l-0.022 0.035zM16.256 1.206c-2.89 0-5.716 0.857-8.119 2.463s-4.276 3.888-5.383 6.559c-1.106 2.67-1.396 5.609-0.832 8.444s1.956 5.439 4 7.483 4.648 3.436 7.483 4c2.835 0.564 5.773 0.274 8.444-0.832s4.953-2.979 6.559-5.383c1.606-2.403 2.463-5.229 2.463-8.119-0.004-3.875-1.545-7.589-4.285-10.329s-6.455-4.281-10.329-4.285zM12.602 22.4c-0.001 0.065-0.027 0.127-0.073 0.172s-0.108 0.071-0.173 0.071h-2.816c-0.064 0-0.126-0.026-0.172-0.071s-0.071-0.107-0.071-0.172v-9.462c-0-0.032 0.006-0.064 0.018-0.094s0.030-0.057 0.052-0.080c0.023-0.023 0.050-0.041 0.079-0.054s0.062-0.019 0.094-0.019h2.816c0.032 0 0.064 0.006 0.094 0.019s0.057 0.031 0.080 0.053c0.023 0.023 0.041 0.050 0.053 0.080s0.019 0.062 0.019 0.094v9.462zM10.848 11.427c-0.35 0-0.692-0.104-0.983-0.298s-0.518-0.471-0.652-0.794c-0.134-0.323-0.169-0.679-0.101-1.022s0.237-0.659 0.484-0.906c0.247-0.247 0.563-0.416 0.906-0.484s0.699-0.033 1.022 0.101c0.323 0.134 0.6 0.361 0.794 0.652s0.298 0.633 0.298 0.983c0 0.232-0.045 0.463-0.134 0.678s-0.219 0.41-0.383 0.575-0.36 0.295-0.575 0.384c-0.215 0.089-0.445 0.134-0.678 0.134zM24.518 22.4c-0.001 0.065-0.027 0.127-0.073 0.172s-0.108 0.071-0.173 0.071h-2.816c-0.032 0-0.064-0.006-0.093-0.019s-0.056-0.030-0.079-0.053c-0.023-0.023-0.041-0.049-0.053-0.079s-0.019-0.061-0.019-0.093v-5.085c0-1.338-0.477-2.24-1.674-2.24-0.373 0.002-0.736 0.119-1.040 0.336s-0.533 0.522-0.656 0.874c-0.084 0.26-0.121 0.533-0.109 0.806v5.309c0 0.065-0.026 0.128-0.072 0.174s-0.109 0.072-0.174 0.072h-2.816c-0.032 0-0.064-0.006-0.094-0.019s-0.057-0.031-0.079-0.054c-0.023-0.023-0.040-0.050-0.052-0.080s-0.018-0.062-0.018-0.094c0-1.35 0.035-7.907 0-9.45-0-0.032 0.006-0.064 0.018-0.094s0.030-0.057 0.052-0.080c0.023-0.023 0.050-0.041 0.079-0.054s0.062-0.019 0.094-0.019h2.81c0.032-0 0.065 0.006 0.095 0.018s0.057 0.030 0.080 0.053c0.023 0.023 0.041 0.050 0.053 0.080s0.018 0.062 0.018 0.095v1.162c0.299-0.52 0.735-0.947 1.26-1.237s1.12-0.429 1.719-0.405c2.173 0 3.805 1.421 3.805 4.48l0.006 5.45zM17.734 14.144v-0.035l-0.022 0.035h0.022zM17.712 14.144h0.022v-0.035l-0.022 0.035zM17.712 14.144h0.022v-0.035l-0.022 0.035zM17.712 14.144h0.022v-0.035l-0.022 0.035zM17.712 14.144h0.022v-0.035l-0.022 0.035zM17.712 14.144h0.022v-0.035l-0.022 0.035zM17.712 14.144h0.022v-0.035l-0.022 0.035zM17.712 14.144h0.022v-0.035l-0.022 0.035zM17.712 14.144h0.022v-0.035l-0.022 0.035zM17.712 14.144h0.022v-0.035l-0.022 0.035zM17.712 14.144h0.022v-0.035l-0.022 0.035zM17.712 14.144h0.022v-0.035l-0.022 0.035zM17.712 14.144h0.022v-0.035l-0.022 0.035zM17.712 14.144h0.022v-0.035l-0.022 0.035zM17.712 14.144h0.022v-0.035l-0.022 0.035z"></path>
</symbol>
<symbol id="icon-telegram" viewBox="0 0 32 32">
<path d="M15.993 2.667c-2.637 0-5.215 0.782-7.408 2.247s-3.902 3.547-4.911 5.984c-1.009 2.436-1.273 5.117-0.759 7.704s1.784 4.962 3.649 6.827c1.865 1.865 4.241 3.135 6.827 3.649s5.267 0.25 7.704-0.759c2.436-1.009 4.519-2.718 5.984-4.911s2.247-4.771 2.247-7.408c0-1.751-0.345-3.485-1.015-5.103s-1.652-3.088-2.89-4.326c-1.238-1.238-2.708-2.22-4.326-2.89s-3.352-1.015-5.103-1.015zM20.232 22.87c-0.050 0.124-0.126 0.237-0.223 0.329s-0.212 0.164-0.339 0.208c-0.127 0.044-0.261 0.061-0.395 0.049s-0.263-0.052-0.38-0.118l-3.62-2.812-2.323 2.143c-0.054 0.040-0.117 0.065-0.183 0.075s-0.134 0.001-0.197-0.023l0.445-3.985 0.014 0.011 0.009-0.079c0 0 6.513-5.93 6.779-6.183 0.269-0.252 0.18-0.307 0.18-0.307 0.015-0.307-0.482 0-0.482 0l-8.63 5.552-3.594-1.224c0 0-0.552-0.198-0.604-0.633-0.055-0.432 0.622-0.667 0.622-0.667l14.289-5.677c0 0 1.175-0.523 1.175 0.343l-2.545 12.995z"></path>
</symbol>
<symbol id="icon-arrow" viewBox="0 0 28 32">
<path d="M0.039 13.793l13.273-13.764 13.21 13.823-0.798 0.761-11.865-12.412-0.066 28.728-1.103-0.003 0.066-28.728-11.923 12.361-0.794-0.767z"></path>
</symbol>
<symbol id="icon-burger"  viewBox="0 0 24 16" >
<path d="M0 16H24V13.3333H0V16ZM0 9.33333H24V6.66667H0V9.33333ZM0 0V2.66667H24V0H0Z"/>
</symbol>
<symbol id="icon-close"  viewBox="0 0 24 24" fill="inherit" xmlns="http://www.w3.org/2000/svg">
  <path d="M18 6L6 18" stroke="inherit" stroke-width="1.8" stroke-linecap="round" stroke-linejoin="round" />
  <path d="M6 6L18 18" stroke="inherit" stroke-width="1.8" stroke-linecap="round" stroke-linejoin="round" />
</symbol>
</svg>